<svg width="187" height="225" viewBox="0 0 187 225" fill="none" xmlns="http://www.w3.org/2000/svg">
<path fill-rule="evenodd" clip-rule="evenodd" d="M93.4999 25.8028C62.6306 25.8028 37.606 50.8712 37.606 81.7947C37.606 88.6054 37.7044 91.4624 38.5297 94.6637C39.3842 97.9782 41.2332 102.359 46.1396 111.054C47.8076 114.009 52.4927 119.815 59.8647 127.804C66.9179 135.447 75.565 144.18 84.2409 152.699C92.8989 161.199 101.493 169.396 108.414 175.958C110.166 177.619 111.831 179.195 113.373 180.653C117.789 184.831 121.189 188.048 122.697 189.559C129.5 196.375 134.368 199.197 140.121 199.197C151.786 199.197 161.242 189.724 161.242 178.039C161.242 173.601 159.893 169.829 157.249 166.17C153.079 160.399 154.369 152.333 160.13 148.155C165.892 143.977 173.944 145.269 178.114 151.041C183.573 158.596 187 167.575 187 178.039C187 203.975 166.012 225 140.121 225C123.812 225 112.617 215.953 104.483 207.803C103.256 206.574 100.327 203.803 96.1183 199.821C94.4969 198.287 92.6854 196.573 90.7082 194.698C83.7499 188.101 75.029 179.784 66.2111 171.126C57.411 162.486 48.4211 153.415 40.9503 145.318C33.7982 137.568 27.0725 129.698 23.7169 123.752C18.5762 114.642 15.3247 107.843 13.5904 101.116C11.848 94.3572 11.8482 88.3747 11.8484 82.0235L11.8484 81.7947C11.8484 36.6208 48.405 0 93.4999 0C138.595 0 175.152 36.6207 175.152 81.7947C175.152 97.5024 170.719 112.212 163.032 124.693C160.691 128.494 156.568 133.278 152.543 137.678C148.281 142.337 143.298 147.448 138.605 152.144C133.896 156.855 129.403 161.221 126.093 164.406C124.435 166 123.07 167.302 122.116 168.209C121.639 168.662 121.264 169.017 121.007 169.259C120.879 169.381 120.78 169.474 120.712 169.538L120.613 169.631L120.607 169.637L120.606 169.638C120.606 169.638 120.605 169.639 111.788 160.235C102.971 150.831 102.971 150.831 102.971 150.831L102.975 150.827L103.058 150.749C103.119 150.692 103.21 150.605 103.331 150.491C103.573 150.263 103.931 149.924 104.391 149.486C105.312 148.612 106.639 147.347 108.252 145.794C111.484 142.686 115.85 138.442 120.403 133.887C124.972 129.316 129.656 124.505 133.554 120.245C137.688 115.726 140.218 112.595 141.111 111.144C146.362 102.619 149.394 92.5813 149.394 81.7947C149.394 50.8712 124.369 25.8028 93.4999 25.8028ZM26.8696 148.155C32.6314 152.333 33.9213 160.399 29.7508 166.17C27.1069 169.829 25.7576 173.601 25.7576 178.039C25.7576 189.724 35.2139 199.197 46.8788 199.197C52.4957 199.197 57.8357 196.295 66.1054 188.01L84.3188 206.256C75.0734 215.517 63.3234 225 46.8788 225C20.9883 225 0 203.975 0 178.039C0 167.575 3.42689 158.596 8.88556 151.041C13.0561 145.269 21.1078 143.977 26.8696 148.155Z" fill="#0180FF"/>
</svg>
